<svg width="120" height="120" viewBox="0 0 120 120" fill="none" xmlns="http://www.w3.org/2000/svg">
<path d="M90 84.9H60.05C54.55 84.9 50.3 89.6 47.65 94.4C45.5523 98.3362 42.1989 101.458 38.1231 103.27C34.0473 105.081 29.4828 105.479 25.1554 104.398C20.8279 103.318 16.9858 100.822 14.2397 97.3069C11.4937 93.7921 10.0014 89.4603 10 85C10.05 81.5 11 78 12.85 75" stroke="#6D28D9" stroke-width="10" stroke-linecap="round" stroke-linejoin="round"/>
<path d="M30 84.9999L45.65 56.0999C48.3 51.2499 46.15 45.1999 43.15 40.5999C41.7341 38.3354 40.786 35.8103 40.3618 33.1735C39.9376 30.5367 40.0457 27.8416 40.6799 25.2473C41.3142 22.6529 42.4615 20.2119 44.0544 18.0682C45.6473 15.9245 47.6534 14.1215 49.9544 12.7656C52.2553 11.4098 54.8045 10.5285 57.4516 10.1738C60.0986 9.81905 62.7899 9.9981 65.3667 10.7003C67.9434 11.4026 70.3534 12.6138 72.4545 14.2625C74.5556 15.9113 76.3051 17.9641 77.6 20.2999" stroke="#6D28D9" stroke-width="10" stroke-linecap="round" stroke-linejoin="round"/>
<path d="M60 30L75.65 58.65C78.3 63.5 84.5 65 90 65C95.3043 65 100.391 67.1071 104.142 70.8579C107.893 74.6086 110 79.6957 110 85C110 90.3043 107.893 95.3914 104.142 99.1421C100.391 102.893 95.3043 105 90 105" stroke="#6D28D9" stroke-width="10" stroke-linecap="round" stroke-linejoin="round"/>
</svg>
